# xmcd
#
# Track frame offsets:
# 150
# 21808
# 58269
# 81312
# 103881
# 119310
# 130817
# 151595
#
# Disc length: 2357 seconds
#
#
# Revision: 0
# Processed by: cddbd v1.5.2PL0 Copyright (c) Steve Scherf et al.
# Submitted via: Nero 7, 11, 10, 0 
#
DISCID=63093308
DTITLE=Ed Earley Band - Going On Blue
DYEAR=2000
DGENRE=Blues
TTITLE0=The Game Goes On
TTITLE1=Blues At Sunrise
TTITLE2=Tin Pan Alley
TTITLE3=Run, Run Baby
TTITLE4=Let The Good Times Roll
TTITLE5=Chitlins Con Carne
TTITLE6=Better Than That
TTITLE7=Your Good Thing
EXTD=
EXTT0=The Game Goes On
EXTT1=Blues At Sunrise
EXTT2=Tin Pan Alley
EXTT3=Run, Run Baby
EXTT4=Let The Good Times Roll
EXTT5=Chitlins Con Carne
EXTT6=Better Than That
EXTT7=Your Good Thing
PLAYORDER=
